HIERARCHY
ROOT Hips
{
  OFFSET -102.467 93.6631 130.069
  CHANNELS 6 Xposition Yposition Zposition Zrotation Xrotation Yrotation
  JOINT LeftUpLeg
  {
    OFFSET 8.64259 1.95398 -2.38835
    CHANNELS 3 Zrotation Xrotation Yrotation
    JOINT LeftLeg
    {
      OFFSET 43.7702 0 0
      CHANNELS 3 Zrotation Xrotation Yrotation
      JOINT LeftFoot
      {
        OFFSET 40.6238 0 0
        CHANNELS 3 Zrotation Xrotation Yrotation
        JOINT LeftToeBase
        {
          OFFSET 12.7242 0 0
          CHANNELS 3 Zrotation Xrotation Yrotation
          End Site
          {
            OFFSET 0 0 0
          }
        }
      }
    }
  }
  JOINT RightUpLeg
  {
    OFFSET -8.2249 1.95398 -2.59336
    CHANNELS 3 Zrotation Xrotation Yrotation
    JOINT RightLeg
    {
      OFFSET 43.5653 0 0
      CHANNELS 3 Zrotation Xrotation Yrotation
      JOINT RightFoot
      {
        OFFSET 40.6238 0 0
        CHANNELS 3 Zrotation Xrotation Yrotation
        JOINT RightToeBase
        {
          OFFSET 12.7242 0 0
          CHANNELS 3 Zrotation Xrotation Yrotation
          End Site
          {
            OFFSET 0 0 0
          }
        }
      }
    }
  }
  JOINT Spine
  {
    OFFSET 0.165834 0.87714 6.61349
    CHANNELS 3 Zrotation Xrotation Yrotation
    JOINT Spine1
    {
      OFFSET 7.38963 1.71661e-005 0
      CHANNELS 3 Zrotation Xrotation Yrotation
      JOINT Spine2
      {
        OFFSET 11.9445 1.14441e-005 0
        CHANNELS 3 Zrotation Xrotation Yrotation
        JOINT Spine3
        {
          OFFSET 14.7254 4.19617e-005 0
          CHANNELS 3 Zrotation Xrotation Yrotation
          JOINT Spine4
          {
            OFFSET 10.9679 0 0
            CHANNELS 3 Zrotation Xrotation Yrotation
            JOINT RightShoulder
            {
              OFFSET 2.46616 -1.6653 3.69651
              CHANNELS 3 Zrotation Xrotation Yrotation
              JOINT RightArm
              {
                OFFSET 13.0012 0 0
                CHANNELS 3 Zrotation Xrotation Yrotation
                JOINT RightForeArm
                {
                  OFFSET 28.7848 1.52588e-005 0
                  CHANNELS 3 Zrotation Xrotation Yrotation
                  JOINT RightHand
                  {
                    OFFSET 26.5688 1.52588e-005 0
                    CHANNELS 3 Zrotation Xrotation Yrotation
                    End Site
                    {
                      OFFSET 0 0 0
                    }
                  }
                }
              }
            }
            JOINT LeftShoulder
            {
              OFFSET 2.38034 -1.29275 -3.7523
              CHANNELS 3 Zrotation Xrotation Yrotation
              JOINT LeftArm
              {
                OFFSET 16.3182 6.10351e-005 0
                CHANNELS 3 Zrotation Xrotation Yrotation
                JOINT LeftForeArm
                {
                  OFFSET 27.0901 0 0
                  CHANNELS 3 Zrotation Xrotation Yrotation
                  JOINT LeftHand
                  {
                    OFFSET 24.5451 1.52588e-005 0
                    CHANNELS 3 Zrotation Xrotation Yrotation
                    End Site
                    {
                      OFFSET 0 0 0
                    }
                  }
                }
              }
            }
            JOINT Neck
            {
              OFFSET 5.0226 -0.0266342 0
              CHANNELS 3 Zrotation Xrotation Yrotation
              JOINT Head
              {
                OFFSET 6.69363 2.86102e-005 0
                CHANNELS 3 Zrotation Xrotation Yrotation
                End Site
                {
                  OFFSET 0 0 0
                }
              }
            }
          }
        }
      }
    }
  }
}
MOTION
Frames:	14
Frame Time:	0.0416667
-267.722 90.9258 309.628 -84.4684 -53.7657 -79.128 -174.113 28.298 89.6226 -30.6615 13.3709 -2.19451 65.9634 3.95294 6.34888 21.0081 0.911447 -4.53273 174.996 1.7005 94.9874 -31.4899 -4.2583 1.74301 48.7958 13.017 30.4888 38.7759 2.38324 19.0614 -4.52552 6.21199 -87.557 14.6666 -7.7534 6.02331 3.0033 -7.48132 6.35873 -19.6739 -9.20231 3.40453 0.3387 -9.20231 3.40451 43.2639 -56.4935 -160.508 37.7403 -16.34 -3.30361 -1.735 -19.5282 -11.1016 -6.59457 -0.28523 -0.155051 -81.4182 10.3452 77.8631 -70.2254 -33.7689 30.0872 21.0221 12.2422 -20.5053 -7.3825 -0.189161 -2.11585 -36.7578 29.9672 -41.972 6.00948 27.9204 49.1404 
-262.806 91.9983 304.205 -85.7924 -53.1366 -79.0224 -174.915 26.2194 91.0968 -18.2654 12.0865 -1.40554 58.2547 -1.58965 -1.06729 26.8495 0.336057 0.805977 178.271 1.65481 98.71 -27.7455 -4.54084 1.50224 60.9674 7.1666 18.4591 37.2757 0.409927 10.1795 -4.18445 7.29227 -88.1087 12.4497 -7.41579 4.62531 0.790561 -7.20526 4.94784 -21.8958 -8.46094 2.17144 -1.88314 -8.46091 2.17143 54.3251 -52.6849 -149.802 35.5567 -17.8871 -14.157 -4.37339 -15.6578 -18.194 -8.76758 -0.275144 -1.61308 -78.0439 11.9946 94.7643 -78.2456 -24.509 16.9471 21.6871 20.2699 -19.7761 -8.95627 -0.214131 -2.21 -21.0563 24.1784 -48.3846 -0.796163 24.164 52.1749 
-257.661 92.2351 298.731 -87.9843 -54.9116 -80.1871 -176.831 24.3471 92.7349 -11.0483 16.2696 0.194841 51.4679 -5.10367 -8.03841 39.0013 0.642544 11.5757 178.737 2.82784 100.072 -26.2904 -1.20455 1.68248 69.0796 4.07269 14.7053 29.7082 0.960362 7.02561 -3.90551 8.3422 -88.6393 10.2997 -7.15924 3.32048 -1.35652 -7.00623 3.63338 -24.0455 -7.8244 1.00388 -4.0328 -7.82437 1.00387 62.8364 -51.429 -139.621 31.0711 -19.2031 -21.6415 -7.40682 -13.8822 -25.6604 -9.01099 -0.152354 -3.39206 -74.717 4.2212 109.796 -76.1395 -11.4375 3.56275 20.7506 28.3754 -19.736 -12.2413 -0.210509 -2.96075 -5.32341 14.8699 -53.9873 -9.71928 17.5491 54.1923 
-252.593 92.595 293.931 -93.3333 -56.8955 -85.7885 179.39 24.9821 92.9952 -28.1614 13.4075 3.03705 56.6037 0.770487 0.273016 44.0684 0.404977 11.0296 178.292 3.67086 98.8224 -26.9065 0.710283 0.953369 72.247 4.31714 13.6688 22.5662 1.98798 5.08692 -3.65454 9.25674 -89.02 8.43439 -6.86046 2.35777 -3.22108 -6.75005 2.65855 -25.9019 -7.25032 0.176532 -5.88928 -7.25033 0.176522 70.7983 -49.3324 -129.855 29.5453 -18.4942 -25.2947 -7.99098 -13.0703 -27.4065 -9.87542 -0.201141 -2.93493 -69.5054 -12.4132 119.126 -62.7016 -0.353151 -12.0267 18.0338 33.0667 -17.9861 -11.2612 -0.212089 -2.80189 12.426 3.68347 -53.5369 -21.8907 9.37259 51.1401 
-247.734 93.0805 289.651 -100.106 -57.1135 -94.1713 178.96 21.9522 92.5183 -49.3949 6.32137 4.38844 59.3644 3.50904 1.74005 45.4664 0.510388 11.5331 176.888 5.56518 94.8524 -30.193 -1.10328 0.514025 71.7078 5.8045 14.5157 19.2312 2.37101 1.86004 -3.53713 9.49939 -88.9096 7.9475 -6.58423 2.51783 -3.70974 -6.46704 2.80611 -26.378 -7.03517 0.413456 -6.36539 -7.03517 0.413454 73.9229 -49.2093 -125.44 29.7639 -19.1214 -23.4171 -3.94956 -13.0605 -19.9435 -12.3032 -0.374555 -1.69904 -67.9765 -16.829 120.755 -59.3653 3.47282 -19.2087 17.277 34.4319 -16.8309 -7.94672 -0.221631 -1.67758 19.2801 3.14056 -42.2495 -28.5622 8.307 37.6026 
-242.783 93.201 285.499 -105.866 -57.83 -102.218 178.829 13.5985 92.031 -59.8157 5.37003 5.12998 57.239 3.09792 3.06138 44.414 0.585791 11.834 175.648 8.40036 90.6831 -33.2976 -4.37454 0.268471 69.3582 5.72661 12.1035 20.117 2.04329 0.16274 -3.63791 9.47348 -88.6994 8.01052 -6.69263 2.94453 -3.64717 -6.5566 3.23711 -26.3177 -7.26672 0.787537 -6.30509 -7.26673 0.787538 75.4803 -50.4159 -122.609 30.6246 -17.6782 -19.672 -0.496455 -15.643 -10.1797 -9.52555 -0.457615 0.438934 -68.4238 -18.0872 119.195 -57.3139 5.91866 -21.768 17.5855 31.3933 -20.2885 -6.51679 -0.159954 -2.43284 19.697 4.29364 -37.0604 -29.4828 8.76277 32.1847 
-237.802 93.0797 281.6 -106.85 -60.4506 -103.51 178.454 5.28625 95.0011 -58.4747 9.49018 6.80704 55.9149 1.09351 -0.122354 44.2538 0.463037 11.0991 175.178 12.0811 88.8804 -32.3266 -5.49738 0.744522 65.5496 6.51707 10.8681 20.934 1.82349 -0.155386 -3.66085 9.25345 -89.019 8.44387 -6.87264 2.36636 -3.21154 -6.76183 2.66767 -25.8931 -7.26455 0.180999 -5.88043 -7.26454 0.180991 77.7591 -51.7319 -118.738 31.8227 -12.152 -13.6199 -0.335461 -17.8029 -5.65666 -5.94726 -0.364535 2.17906 -68.9329 -23.3223 116.222 -51.5046 8.38238 -25.6792 17.6596 29.4131 -23.8477 -5.26443 -0.128148 -2.93369 21.4461 2.78718 -35.9421 -30.4439 7.46145 31.1838 
-232.808 93.08 277.639 -106.232 -64.6367 -101.913 179.93 -2.21127 98.1592 -46.4595 17.1816 9.24989 58.0504 0.766138 -3.55904 44.3383 0.0309192 9.07414 175.027 14.113 88.4959 -26.8914 -3.19611 1.20598 60.7611 8.12073 10.9169 22.3019 1.95783 4.10088 -3.6885 8.89185 -89.4803 9.14802 -7.12424 1.53683 -2.50461 -7.04969 1.85035 -25.1974 -7.25503 -0.68685 -5.18475 -7.25502 -0.68686 80.3476 -54.6135 -113.92 29.5212 -8.60928 -8.02472 -0.446236 -17.353 -4.09364 -4.82579 -0.296361 2.21839 -70.6678 -28.3345 111.291 -46.4472 9.54982 -28.3315 17.0587 27.3643 -25.8152 -4.73187 -0.108858 -3.47418 20.1653 1.4416 -34.6132 -29.626 6.09126 28.7316 
-226.361 92.5922 273.005 -103.538 -66.301 -99.0313 -176.948 -5.87726 97.8738 -33.8927 20.4947 9.13902 63.9604 4.5731 -0.269948 56.9228 -1.13023 6.95547 174.649 16.396 86.5475 -19.3235 -4.08501 1.66766 54.4316 9.2049 10.8684 30.4593 -0.360644 0.210096 -3.33727 8.52404 -89.7942 9.86394 -6.55854 0.936518 -1.79096 -6.51096 1.22547 -24.4579 -6.53546 -1.0866 -4.44522 -6.53545 -1.0866 84.6795 -56.5542 -107.172 27.2763 -6.28378 -4.65989 -0.170538 -14.7746 -2.85401 -5.08758 -0.360472 3.4289 -72.7436 -34.5718 106.266 -38.7968 11.4615 -31.159 16.2706 26.847 -27.9394 -5.41041 -0.105759 -3.79516 18.7673 -0.129187 -32.7871 -29.061 4.1663 26.5746 
-218.972 92.6998 267.204 -106.089 -64.3799 -102.115 -173.67 -7.88706 94.5599 -25.1928 20.7122 6.00873 68.2779 11.5183 11.1345 50.7934 -1.15359 5.41167 174.629 16.7802 84.3035 -13.8284 -1.25798 0.905109 56.9038 7.52943 12.0766 34.391 -1.3798 -0.0328981 -2.66545 8.55509 -89.7639 9.79262 -5.20614 0.88129 -1.86837 -5.16231 1.11015 -24.4868 -5.22969 -0.728509 -4.47419 -5.22968 -0.728508 89.4725 -57.9565 -100.097 25.2302 -6.10849 -2.31013 -0.825679 -12.5295 -4.8942 -3.65052 -0.235932 2.78664 -76.4355 -40.1608 99.2646 -32.0364 11.9313 -31.759 17.0857 28.4044 -30.4139 -5.91173 -0.071296 -5.00858 17.2525 -1.57942 -29.7564 -26.8531 2.46511 23.8044 
-212.274 93.3974 261.423 -104.702 -59.3939 -103.465 -173.535 -6.07688 89.4456 -20.3993 18.5307 2.24861 67.1863 10.4071 13.2676 43.1907 -1.60082 0.424138 173.137 18.3471 81.74 -13.6422 9.76784 0.773089 58.769 8.13205 18.2974 31.2665 0.153882 4.01026 -1.82996 8.49601 -89.5396 9.90036 -3.4382 1.19291 -1.76681 -3.38238 1.34321 -24.3378 -3.63756 0.103159 -4.32517 -3.63757 0.103148 95.623 -56.7932 -91.5593 26.1881 -6.91591 -0.807676 -2.91086 -12.4144 -11.3229 -4.4586 -0.237677 1.20402 -80.3529 -46.5558 92.9114 -23.3932 12.7609 -30.133 12.0691 26.8386 -27.0257 -4.08624 -0.094934 -4.11152 16.1399 -1.51496 -21.8205 -24.9452 1.57347 16.9817 
-207.157 93.738 256.866 -103.234 -55.2894 -100.504 -173.95 -0.0712522 90.0244 -24.4692 14.2244 1.46781 67.6166 8.10882 12.0736 37.5328 -1.03726 -0.0447151 168.588 20.693 83.922 -30.2062 4.82106 3.52674 54.9049 8.7174 19.334 33.7771 -0.505013 3.26736 -1.11424 8.45344 -89.8729 9.97375 -2.16287 0.430496 -1.69546 -2.14184 0.525305 -24.2452 -2.19219 -0.239752 -4.23258 -2.1922 -0.239758 98.8087 -52.1968 -87.2629 30.2046 -9.82038 -0.0591866 -4.28511 -12.3724 -16.9165 -7.36456 -0.3494 0.393289 -82.925 -50.8622 89.2209 -23.2487 9.14381 -24.2216 10.1106 29.0417 -21.3024 -3.53309 -0.104312 -2.92598 15.8492 -0.599166 -12.3338 -25.1098 0.844213 10.8926 
-203.385 93.6716 252.629 -102.651 -53.3294 -98.1902 -173.603 4.99034 90.3909 -27.3196 13.7782 1.09195 67.638 6.49774 11.8978 33.3368 -0.616147 -0.826327 166.683 19.4646 85.9173 -49.581 -5.51812 3.0742 53.8897 8.17752 17.0513 40.2167 -1.66767 4.03209 -0.667298 8.29401 -90.121 10.2857 -1.38476 -0.121038 -1.38455 -1.38874 -0.0599774 -23.925 -1.28436 -0.531703 -3.91229 -1.28434 -0.531691 100.469 -51.254 -84.775 30.4748 -12.6955 -0.355476 -5.86638 -12.6109 -22.178 -9.13911 -0.511197 1.39683 -84.9797 -51.9264 86.2755 -25.8411 4.93244 -16.4502 8.1916 32.7401 -14.2303 -4.64743 -0.138296 -1.96437 13.7597 -0.538916 -8.71357 -24.3169 0.375504 7.64715 
-199.898 93.5418 248.505 -104.62 -50.3069 -101.57 -174.042 5.54719 88.1621 -25.6168 11.1782 0.287583 65.6894 3.79874 10.6978 28.7172 -0.0988674 -1.63064 167.403 11.1089 82.5437 -57.2891 -8.80299 0.551481 53.6784 8.26856 17.3955 39.5892 -2.05005 2.08797 -0.252446 8.28448 -89.8282 10.3044 -0.424394 0.379235 -1.36648 -0.407301 0.397551 -23.9019 -0.518743 0.234159 -3.88924 -0.518746 0.23416 100.549 -51.8445 -84.6332 31.2555 -12.6248 -1.03535 -6.82884 -12.0265 -25.8476 -13.8412 -0.746038 1.12137 -84.991 -52.6765 86.3474 -24.2049 4.48399 -9.7099 5.57766 35.8846 -10.5374 -6.37847 -0.186911 -1.59271 11.656 -1.23819 -8.61754 -23.3819 -0.321993 7.03336 
